<?xml version="1.0" encoding="UTF-8"?>
<!DOCTYPE svg PUBLIC "-//W3C//DTD SVG 1.1//EN" "http://www.w3.org/Graphics/SVG/1.1/DTD/svg11.dtd">
<!-- Creator: CorelDRAW X5 -->
<svg xmlns="http://www.w3.org/2000/svg" xml:space="preserve" width="574.779mm" height="154.518mm" style="shape-rendering:geometricPrecision; text-rendering:geometricPrecision; image-rendering:optimizeQuality; fill-rule:evenodd; clip-rule:evenodd"
viewBox="0 0 5937 1596"
 xmlns:xlink="http://www.w3.org/1999/xlink">
 <defs>
  <style type="text/css">
   <![CDATA[
    .fil0 {fill:#65CC30;fill-rule:nonzero}
    .fil1 {fill:#8F9591;fill-rule:nonzero}
    .fil4 {fill:url(#id0)}
    .fil5 {fill:url(#id1)}
    .fil8 {fill:url(#id2)}
    .fil11 {fill:url(#id3)}
    .fil2 {fill:url(#id4)}
    .fil3 {fill:url(#id5)}
    .fil7 {fill:url(#id6)}
    .fil9 {fill:url(#id7)}
    .fil10 {fill:url(#id8)}
    .fil6 {fill:url(#id9)}
   ]]>
  </style>
  <linearGradient id="id0" gradientUnits="userSpaceOnUse" x1="-13.9184" y1="919.921" x2="863.651" y2="908.479">
   <stop offset="0" style="stop-color:#31BDBA"/>
   <stop offset="1" style="stop-color:#0F62AB"/>
  </linearGradient>
  <linearGradient id="id1" gradientUnits="userSpaceOnUse" xlink:href="#id0" x1="172.83" y1="858.384" x2="863.385" y2="848.382">
  </linearGradient>
  <linearGradient id="id2" gradientUnits="userSpaceOnUse" xlink:href="#id0" x1="1720.68" y1="1737.26" x2="-81.5456" y2="229.628">
  </linearGradient>
  <linearGradient id="id3" gradientUnits="userSpaceOnUse" x1="1698.48" y1="814.098" x2="-95.7315" y2="1747.3">
   <stop offset="0" style="stop-color:#1C8684"/>
   <stop offset="0.129412" style="stop-color:#31BDBA"/>
   <stop offset="1" style="stop-color:#0F62AB"/>
  </linearGradient>
  <linearGradient id="id4" gradientUnits="userSpaceOnUse" xlink:href="#id0" x1="1670.63" y1="973.021" x2="1620.26" y2="1602.75">
  </linearGradient>
  <linearGradient id="id5" gradientUnits="userSpaceOnUse" xlink:href="#id0" x1="1451.64" y1="1606.89" x2="1542.94" y2="1005.38">
  </linearGradient>
  <linearGradient id="id6" gradientUnits="userSpaceOnUse" xlink:href="#id0" x1="577.239" y1="708.532" x2="1340.92" y2="-100.331">
  </linearGradient>
  <linearGradient id="id7" gradientUnits="userSpaceOnUse" x1="1610.94" y1="663.786" x2="949.008" y2="985.045">
   <stop offset="0" style="stop-color:#1D8987"/>
   <stop offset="0.0392157" style="stop-color:#219593"/>
   <stop offset="0.109804" style="stop-color:#2EB6B3"/>
   <stop offset="0.121569" style="stop-color:#31BDBA"/>
   <stop offset="0.141176" style="stop-color:#2EB6B8"/>
   <stop offset="0.278431" style="stop-color:#2397B3"/>
   <stop offset="0.431373" style="stop-color:#1A80AF"/>
   <stop offset="0.580392" style="stop-color:#136FAD"/>
   <stop offset="0.74902" style="stop-color:#1065AB"/>
   <stop offset="0.960784" style="stop-color:#0F62AB"/>
   <stop offset="1" style="stop-color:#0F62AB"/>
  </linearGradient>
  <linearGradient id="id8" gradientUnits="userSpaceOnUse" x1="1425.67" y1="459.5" x2="-155.967" y2="1266.72">
   <stop offset="0" style="stop-color:#1C8684"/>
   <stop offset="0.160784" style="stop-color:#31BDBA"/>
   <stop offset="1" style="stop-color:#0F62AB"/>
  </linearGradient>
  <linearGradient id="id9" gradientUnits="userSpaceOnUse" xlink:href="#id0" x1="577.302" y1="824.784" x2="1225.05" y2="-127.927">
  </linearGradient>
 </defs>
 <g id="Warstwa_x0020_1">
  <metadata id="CorelCorpID_0Corel-Layer"/>
  <g id="_436455640">
   <path class="fil0" d="M2705 917l-285 -669 -100 0c-23,0 -42,1 -57,3 -15,2 -27,6 -37,12 -10,6 -18,15 -25,27 -7,12 -15,28 -23,48l-241 579c35,0 64,1 88,1 24,0 43,-1 59,-3 16,-2 29,-7 39,-15 11,-8 20,-20 29,-36 9,-16 19,-38 29,-65l277 0c6,16 12,31 18,45 5,14 12,26 20,36 8,10 18,18 32,25 13,6 31,10 53,11 4,0 9,1 15,1 6,0 13,0 22,0 9,0 20,0 35,0 14,0 31,0 52,0zm-300 -260l-168 0 84 -216 85 216zm904 -275l-50 0c-27,0 -51,1 -70,2 -19,2 -35,5 -49,9 -13,4 -25,10 -34,18 -9,8 -18,18 -25,31 -7,12 -15,28 -22,46l-93 234 -91 -234c-6,-15 -11,-29 -17,-40 -6,-12 -12,-22 -18,-30 -7,-9 -15,-15 -24,-21 -10,-5 -23,-9 -39,-11 -16,-2 -33,-4 -51,-4 -18,0 -35,0 -51,0 -17,0 -31,1 -42,1l246 535c19,0 34,0 47,0 13,0 23,0 32,0 8,0 16,0 22,-1 20,-1 36,-5 49,-10 13,-5 24,-12 32,-21 9,-9 16,-19 22,-31 6,-12 13,-25 20,-39l209 -432zm576 228c0,-33 -6,-64 -17,-92 -12,-28 -29,-53 -52,-74 -23,-21 -52,-38 -86,-50 -34,-12 -74,-18 -120,-18 -47,0 -88,5 -122,15 -34,10 -63,24 -86,41 -23,18 -42,38 -55,61 -14,23 -23,48 -29,74 -6,26 -9,53 -9,81 0,27 3,54 9,80 6,26 16,50 29,73 14,23 32,43 55,60 23,17 52,31 86,41 34,10 75,15 122,15l236 0c0,-31 -1,-56 -4,-76 -3,-19 -8,-34 -17,-43 -8,-10 -21,-16 -37,-20 -17,-3 -39,-5 -66,-5l-117 0c-25,0 -45,-2 -62,-7 -16,-5 -28,-13 -35,-25 -8,-11 -12,-27 -12,-46l241 0c7,0 16,0 27,0 11,0 22,0 33,0 12,0 23,-1 33,-2 10,-1 19,-4 26,-7 7,-3 13,-8 18,-12 5,-5 8,-12 11,-22 2,-10 3,-24 3,-41zm-185 -11l-209 0c0,-20 0,-36 2,-48 2,-11 6,-20 12,-24 7,-5 18,-8 32,-9 15,-1 35,-1 62,-1 24,0 44,3 58,10 15,6 25,16 32,28 7,12 10,27 10,45zm961 317l0 -669c-38,0 -70,0 -94,2 -24,2 -43,6 -57,12 -14,7 -23,17 -28,32 -5,14 -8,35 -8,60l0 303 -232 -334c-14,-19 -26,-34 -37,-45 -11,-11 -22,-18 -33,-22 -11,-4 -24,-7 -39,-8 -15,-1 -33,-1 -54,-1l-96 0 0 553c0,27 2,49 7,64 5,16 14,27 27,35 13,7 32,12 57,14 25,2 57,3 97,3l0 -415 235 332c9,14 18,26 25,36 7,10 15,18 22,24 8,6 16,11 26,14 10,3 21,6 35,7 14,1 30,2 50,2l99 0zm666 0c0,-9 0,-20 1,-32 0,-12 0,-25 -1,-37 -1,-13 -3,-25 -7,-36 -4,-11 -10,-20 -18,-27 -5,-4 -12,-8 -21,-11 -9,-3 -21,-5 -36,-7 -15,-1 -33,-2 -55,-2l-214 0 0 -121 318 0c0,-21 0,-40 0,-55 0,-15 -1,-28 -4,-38 -3,-10 -9,-18 -17,-24 -9,-6 -21,-10 -38,-12 -17,-3 -39,-4 -68,-4l-191 0 0 -109 351 0c0,-22 0,-42 0,-58 0,-17 -2,-31 -5,-43 -3,-12 -9,-22 -18,-29 -9,-7 -22,-13 -39,-16 -17,-4 -40,-5 -69,-5l-255 0c-31,0 -57,1 -77,3 -20,2 -35,7 -46,15 -11,8 -18,20 -22,36 -4,16 -6,38 -6,65l0 430c0,7 0,14 0,22 0,8 0,16 1,25 3,20 9,35 18,45 9,10 21,17 35,21 14,4 30,6 46,6 16,0 33,0 49,0l386 0zm609 -667l-448 0c-22,0 -40,1 -55,2 -15,2 -26,5 -35,10 -9,5 -15,14 -20,25 -5,11 -7,26 -9,45 -1,19 -2,42 -2,70l193 0 0 398c0,28 2,49 6,65 5,16 13,28 26,35 13,8 31,12 56,14 24,2 56,3 96,3l0 -515 64 0c28,0 51,-1 68,-4 17,-3 30,-10 38,-20 9,-10 14,-25 17,-46 3,-20 4,-48 4,-82z"/>
  </g>
  <g id="_436454896">
   <path class="fil1" d="M4256 1144l-55 30c-10,-11 -21,-18 -31,-23 -10,-4 -22,-6 -36,-6 -25,0 -45,7 -60,22 -15,15 -23,34 -23,57 0,23 7,41 22,55 15,14 34,21 58,21 30,0 53,-10 69,-30l52 36c-25,32 -58,50 -100,54l-41 0c-37,-4 -66,-17 -88,-40 -26,-28 -40,-60 -40,-97 0,-26 6,-49 19,-71 13,-22 31,-39 54,-51 23,-12 49,-18 77,-18 26,0 50,5 71,16 21,10 38,25 51,45z"/>
   <path class="fil1" d="M4300 1091l57 0 0 33c6,-13 14,-23 25,-30 10,-7 21,-10 34,-10 9,0 18,2 27,7l-21 57c-8,-4 -14,-6 -19,-6 -10,0 -19,6 -26,19 -7,13 -11,37 -11,74l0 13 0 107 -66 0 0 -265z"/>
   <path class="fil1" d="M4674 1190c-4,-15 -13,-27 -26,-36 -13,-9 -28,-14 -45,-14 -19,0 -35,5 -49,16 -9,6 -17,18 -24,34l144 0zm-50 171l-40 0c-33,-4 -60,-16 -82,-38 -26,-26 -39,-59 -39,-98 0,-40 13,-74 39,-101 26,-27 59,-40 98,-40 42,0 76,13 102,40 26,27 39,62 39,106l0 13 -213 0c3,19 11,34 25,45 13,11 30,17 51,17 25,0 46,-9 64,-26l56 26c-14,20 -31,34 -50,44 -14,7 -31,11 -49,13z"/>
   <path class="fil1" d="M4920 1145c-21,0 -38,7 -51,22 -14,15 -20,33 -20,56 0,23 7,42 21,56 14,15 31,22 51,22 21,0 38,-7 52,-22 14,-15 21,-34 21,-57 0,-23 -7,-42 -21,-56 -14,-14 -31,-21 -52,-21zm4 216l-32 0c-28,-4 -52,-16 -73,-39 -25,-27 -37,-60 -37,-99 0,-41 12,-74 36,-101 24,-26 53,-39 88,-39 16,0 31,3 45,9 14,6 27,15 39,27l0 -29 66 0 0 265 -66 0 0 -28c-13,12 -26,21 -39,27 -8,4 -17,6 -27,7z"/>
   <polygon class="fil1" points="5132,993 5198,993 5198,1091 5238,1091 5238,1148 5198,1148 5198,1356 5132,1356 5132,1148 5098,1148 5098,1091 5132,1091 "/>
   <path class="fil1" d="M5266 1091l66 0 0 265 -66 0 0 -265zm33 -109c12,0 22,4 30,13 8,8 12,19 12,31 0,12 -4,22 -12,30 -8,8 -18,13 -30,13 -12,0 -22,-4 -30,-13 -8,-9 -13,-19 -13,-31 0,-12 4,-22 12,-30 8,-8 18,-12 30,-12z"/>
   <polygon class="fil1" points="5364,1091 5432,1091 5499,1247 5566,1091 5633,1091 5520,1356 5477,1356 "/>
   <path class="fil1" d="M5871 1190c-4,-15 -13,-27 -26,-36 -13,-9 -28,-14 -45,-14 -19,0 -35,5 -49,16 -9,6 -17,18 -24,34l144 0zm-50 171l-40 0c-33,-4 -60,-16 -82,-38 -26,-26 -39,-59 -39,-98 0,-40 13,-74 39,-101 26,-27 59,-40 98,-40 42,0 76,13 102,40 26,27 39,62 39,106l0 13 -213 0c3,19 11,34 25,45 13,11 30,17 51,17 25,0 46,-9 64,-26l56 26c-14,20 -31,34 -50,44 -14,7 -31,11 -49,13z"/>
  </g>
  <g id="_436452808">
   <path class="fil2" d="M1564 1596c134,-196 -26,-465 -107,-580 102,-34 176,-37 176,-37l61 108c140,249 59,413 -130,508l0 0z"/>
   <path class="fil3" d="M1564 1596c-16,-35 -8,-18 -28,-57l-240 -448c46,-28 91,-49 133,-65 9,-3 18,-7 27,-10 82,115 242,384 107,580l0 0z"/>
   <path class="fil4" d="M857 476c0,0 -255,242 -472,744 0,0 -3,2 -9,5 -58,32 -384,193 -263,-284l1 -1 263 -443c0,0 123,-87 281,-81 63,2 131,19 199,61l0 0c0,0 0,0 0,0l0 0z"/>
   <path class="fil5" d="M857 476c0,0 -255,242 -472,744 0,0 -119,71 -206,54 126,-374 367,-714 479,-859 63,2 131,19 199,61l0 0z"/>
   <path class="fil6" d="M1425 597l-190 -339c-192,-341 -512,-345 -712,-8l-146 247c491,-285 752,287 752,287m296 -186l0 0 0 0z"/>
   <path class="fil7" d="M1426 597l-155 98 -152 -252c-162,-288 -431,-333 -626,-140l31 -53c200,-337 520,-333 712,8l190 339 0 0z"/>
   <path class="fil8" d="M1738 1186c0,0 -205,-224 -687,41 0,0 0,0 0,0 0,0 0,0 0,0 -179,107 -365,219 -493,294 -329,195 -497,-64 -497,-64 -158,-209 49,-510 54,-517 -129,521 272,279 272,279 114,-54 347,-193 564,-326 0,0 0,0 0,0 0,0 0,0 0,0 1,-1 3,-1 4,-2 4,-2 7,-4 11,-7 1,-1 3,-2 4,-3 1,-1 2,-1 3,-2 0,0 0,0 1,0 0,0 0,0 0,0 1,-1 2,-1 2,-2 402,-258 255,-628 255,-628 105,172 55,105 195,347 0,0 0,0 0,0l170 303c0,0 105,187 142,286l0 0z"/>
   <path class="fil9" d="M1595 898c0,0 -215,-55 -631,192 15,-10 23,-15 23,-15 396,-236 416,-516 416,-516 7,11 14,24 21,37 0,0 0,0 0,0l170 303 0 0z"/>
   <path class="fil10" d="M1404 558c0,0 -20,280 -416,516 0,0 -429,294 -653,348 0,0 -470,56 -221,-483 -129,521 272,279 272,279 114,-54 347,-193 564,-326 0,0 0,0 0,0 0,0 0,0 1,0 1,-1 3,-2 4,-2 4,-2 7,-4 11,-7 1,-1 3,-2 4,-3 1,-1 2,-1 3,-2 0,0 0,0 1,0 0,0 0,0 0,0 1,0 2,-1 2,-2 402,-258 255,-628 255,-628 100,163 60,111 174,310l0 0z"/>
   <path class="fil11" d="M1738 1186c-4,-4 -210,-221 -687,41 0,0 0,0 0,0 0,0 0,0 0,0 -179,107 -365,219 -493,294 -329,195 -497,-64 -497,-64 -158,-209 49,-510 54,-517 -248,539 221,483 221,483 193,-46 538,-271 630,-332 416,-246 631,-192 631,-192 0,0 105,187 142,286l0 0z"/>
  </g>
 </g>
</svg>
